<svg width="105" height="9.5" viewBox="0 0 211 19" fill="none" xmlns="http://www.w3.org/2000/svg">
<path d="M21.5955 5.616C19.0835 5.536 16.6435 5.488 14.2755 5.472V18H8.27553V5.472C5.89153 5.488 3.45953 5.536 0.979531 5.616V0.576H21.5955V5.616ZM44.8864 0.576L44.4304 1.272C42.7184 3.928 41.2464 6.28 40.0144 8.328C38.7984 10.36 37.7824 12.232 36.9664 13.944V18H30.7024V13.536C30.1104 12.336 29.4144 11.104 28.6144 9.84C27.8144 8.56 26.6784 6.808 25.2064 4.584C24.0544 2.888 23.1744 1.552 22.5664 0.576H29.2864C29.7664 1.552 30.5504 3 31.6384 4.92C32.7264 6.872 33.4704 8.248 33.8704 9.048C34.4304 7.88 35.1824 6.448 36.1264 4.752C37.2304 2.768 37.9744 1.376 38.3584 0.576H44.8864ZM57.063 0.599999C60.247 0.599999 62.463 1.168 63.711 2.304C64.959 3.424 65.583 5.008 65.583 7.056C65.583 8.464 65.335 9.664 64.839 10.656C64.343 11.632 63.471 12.4 62.223 12.96C60.975 13.504 59.255 13.776 57.063 13.776H52.071V18H46.167C46.295 14.896 46.359 11.992 46.359 9.288C46.359 6.584 46.295 3.68 46.167 0.576H52.071V0.599999H57.063ZM55.383 9.144C56.711 9.144 57.703 9.096 58.359 9C59.031 8.888 59.495 8.696 59.751 8.424C60.023 8.152 60.159 7.752 60.159 7.224C60.159 6.696 60.031 6.304 59.775 6.048C59.535 5.776 59.079 5.592 58.407 5.496C57.751 5.4 56.743 5.352 55.383 5.352H52.071V9.144H55.383ZM73.1592 13.608C79.2392 13.576 83.6472 13.488 86.3832 13.344C86.2712 14 86.1992 14.68 86.1672 15.384C86.1512 16.072 86.1432 16.944 86.1432 18H67.4952C67.6232 14.896 67.6872 11.992 67.6872 9.288C67.6872 6.584 67.6232 3.68 67.4952 0.576H86.1432V4.92H73.1592V7.224C73.9272 7.24 75.0632 7.248 76.5672 7.248C79.1112 7.248 81.7432 7.2 84.4632 7.104V11.232C81.7432 11.136 79.1112 11.088 76.5672 11.088C75.0632 11.088 73.9272 11.096 73.1592 11.112V13.608ZM95.9877 0.311999C98.9957 0.311999 101.372 0.679999 103.116 1.416C104.86 2.136 106.076 3.144 106.764 4.44C107.468 5.72 107.82 7.296 107.82 9.168C107.82 10.944 107.42 12.496 106.62 13.824C105.82 15.152 104.62 16.184 103.02 16.92C101.42 17.64 99.4517 18 97.1157 18C95.6917 18 94.2437 18 92.7717 18C91.2997 18 89.8117 17.992 88.3077 17.976C88.4357 14.824 88.4997 11.888 88.4997 9.168C88.4997 6.416 88.4357 3.544 88.3077 0.551999C90.2117 0.391999 92.7717 0.311999 95.9877 0.311999ZM97.7877 13.224C99.2757 13.224 100.268 12.864 100.764 12.144C101.26 11.424 101.508 10.432 101.508 9.168C101.508 7.952 101.244 6.968 100.716 6.216C100.204 5.464 99.2277 5.088 97.7877 5.088C96.2357 5.088 95.0757 5.136 94.3077 5.232V13.224H97.7877ZM129.002 6.384C129.002 7.776 128.658 8.952 127.97 9.912C127.298 10.872 126.138 11.568 124.49 12C124.682 12.256 124.818 12.456 124.898 12.6L128.786 18H122.258C121.554 16.688 120.442 14.832 118.922 12.432H115.394V18H109.73C109.858 14.896 109.922 11.992 109.922 9.288C109.922 6.584 109.858 3.68 109.73 0.576H115.394V0.599999H120.314C123.546 0.599999 125.802 1.12 127.082 2.16C128.362 3.2 129.002 4.608 129.002 6.384ZM115.394 5.208V7.944H118.634C119.994 7.944 121.018 7.904 121.706 7.824C122.41 7.728 122.898 7.584 123.17 7.392C123.442 7.2 123.578 6.92 123.578 6.552C123.578 6.2 123.45 5.928 123.194 5.736C122.938 5.544 122.458 5.408 121.754 5.328C121.05 5.248 120.01 5.208 118.634 5.208H115.394ZM136.581 13.608C142.661 13.576 147.069 13.488 149.805 13.344C149.693 14 149.621 14.68 149.589 15.384C149.573 16.072 149.565 16.944 149.565 18H130.917C131.045 14.896 131.109 11.992 131.109 9.288C131.109 6.584 131.045 3.68 130.917 0.576H149.565V4.92H136.581V7.224C137.349 7.24 138.485 7.248 139.989 7.248C142.533 7.248 145.165 7.2 147.885 7.104V11.232C145.165 11.136 142.533 11.088 139.989 11.088C138.485 11.088 137.349 11.096 136.581 11.112V13.608ZM157.586 13.152C162.226 13.12 166.066 13.04 169.106 12.912C168.898 13.728 168.77 14.512 168.722 15.264C168.674 16.016 168.65 16.928 168.65 18H151.73C151.858 14.896 151.922 11.992 151.922 9.288C151.922 6.584 151.858 3.68 151.73 0.576H157.586V13.152ZM176.406 13.152C181.046 13.12 184.886 13.04 187.926 12.912C187.718 13.728 187.59 14.512 187.542 15.264C187.494 16.016 187.47 16.928 187.47 18H170.55C170.678 14.896 170.742 11.992 170.742 9.288C170.742 6.584 170.678 3.68 170.55 0.576H176.406V13.152ZM199.324 18.24C195.66 18.24 192.964 17.448 191.236 15.864C189.508 14.264 188.644 12.024 188.644 9.144C188.644 6.296 189.5 4.072 191.212 2.472C192.94 0.871999 195.644 0.0719991 199.324 0.0719991C203.02 0.0719991 205.724 0.871999 207.436 2.472C209.164 4.072 210.028 6.296 210.028 9.144C210.028 12.04 209.172 14.28 207.46 15.864C205.748 17.448 203.036 18.24 199.324 18.24ZM199.324 13.344C201.1 13.344 202.38 13.008 203.164 12.336C203.948 11.648 204.34 10.584 204.34 9.144C204.34 7.736 203.948 6.688 203.164 6C202.38 5.312 201.1 4.968 199.324 4.968C197.564 4.968 196.292 5.312 195.508 6C194.724 6.688 194.332 7.736 194.332 9.144C194.332 10.568 194.724 11.624 195.508 12.312C196.292 13 197.564 13.344 199.324 13.344Z" fill="white"/>
</svg>
